<svg width="40" height="49" viewBox="0 0 40 49" fill="none" xmlns="http://www.w3.org/2000/svg">
<path d="M22.5642 47.2228L22.9178 46.8692L22.5642 47.2228ZM21.5602 41.8198C21.1015 44.1383 22.0222 45.9736 22.9178 46.8692L22.2107 47.5763C21.1063 46.4719 20.0487 44.3073 20.5792 41.6257L21.5602 41.8198ZM22.9178 46.8692C23.0165 46.9679 23.0722 47.1012 23.0725 47.2415C23.0728 47.3648 23.0306 47.4594 23.0007 47.5128C22.9434 47.6151 22.8634 47.6857 22.816 47.7241C22.7088 47.8112 22.565 47.8933 22.409 47.9675C22.0877 48.1203 21.6226 48.2825 21.0486 48.4033C19.8975 48.6455 18.2713 48.729 16.4323 48.2035L16.7071 47.242C18.3681 47.7166 19.8274 47.6383 20.8427 47.4247C21.3519 47.3175 21.7402 47.1782 21.9795 47.0644C22.1037 47.0054 22.167 46.963 22.1858 46.9478C22.2014 46.9351 22.164 46.9602 22.1282 47.0242C22.109 47.0584 22.0723 47.1356 22.0725 47.2436C22.0728 47.3687 22.123 47.4887 22.2107 47.5763L22.9178 46.8692Z" fill="#F8F6EF"/>
<path d="M22.6162 25.1038L22.5935 24.6043L22.6162 25.1038ZM7.46888 11.217L7.82565 11.5673L7.46888 11.217ZM39.0857 0.887917C27.3691 -1.14977 16.7177 5.17746 12.2156 11.8978C9.97322 15.2451 9.16378 18.8448 10.7643 21.5756C12.3658 24.308 16.2203 25.8949 22.6389 25.6033L22.5935 24.6043C16.276 24.8913 12.9354 23.3021 11.6271 21.0699C10.3178 18.8361 10.8838 15.6826 13.0464 12.4544C17.3543 6.02381 27.6309 -0.0892166 38.9143 1.87313L39.0857 0.887917ZM22.6389 25.6033C30.6584 25.2389 35.2307 22.8283 37.0736 19.5586C38.9285 16.2677 37.8951 12.3412 35.2443 9.26334C32.5851 6.1759 28.2338 3.84258 23.2002 3.65191C18.1521 3.4607 12.4553 5.4249 7.11211 10.8667L7.82565 11.5673C12.9929 6.3047 18.4246 4.47174 23.1624 4.6512C27.9147 4.83121 32.0065 7.03641 34.4866 9.91594C36.9749 12.8051 37.777 16.274 36.2025 19.0676C34.616 21.8824 30.4941 24.2454 22.5935 24.6043L22.6389 25.6033ZM7.11211 10.8667C2.84934 15.2082 0.869398 19.4059 0.547414 23.3608C0.225494 27.315 1.56689 30.9526 3.80514 34.163C8.2665 40.5622 16.3598 45.3683 22.4273 47.8435L22.805 46.9176C16.8165 44.4745 8.9279 39.7624 4.62546 33.5911C2.48181 30.5163 1.24585 27.1056 1.54412 23.442C1.84232 19.7791 3.68012 15.7894 7.82565 11.5673L7.11211 10.8667Z" fill="#F8F6EF"/>
</svg>
