<svg width="123" height="123" viewBox="0 0 123 123" fill="none" xmlns="http://www.w3.org/2000/svg">
<mask id="path-1-inside-1_17_12" fill="white">
<path d="M123 61.5C123 73.5447 119.463 85.3243 112.828 95.377C106.194 105.43 96.753 113.313 85.6781 118.048L85.2418 117.027C96.1168 112.378 105.387 104.637 111.902 94.7656C118.417 84.8944 121.89 73.3274 121.89 61.5H123Z"/>
</mask>
<path d="M123 61.5C123 73.5447 119.463 85.3243 112.828 95.377C106.194 105.43 96.753 113.313 85.6781 118.048L85.2418 117.027C96.1168 112.378 105.387 104.637 111.902 94.7656C118.417 84.8944 121.89 73.3274 121.89 61.5H123Z" stroke="#F8F6EF" stroke-width="2" mask="url(#path-1-inside-1_17_12)"/>
<path d="M85.0055 117.5L84.6519 117.146L85.0055 117.5ZM86.0095 112.097C86.4682 114.415 85.5475 116.251 84.6519 117.146L85.359 117.854C86.4635 116.749 87.521 114.585 86.9905 111.903L86.0095 112.097ZM84.6519 117.146C84.5532 117.245 84.4975 117.378 84.4972 117.519C84.4969 117.642 84.5391 117.737 84.569 117.79C84.6263 117.892 84.7063 117.963 84.7537 118.001C84.8609 118.088 85.0047 118.171 85.1607 118.245C85.482 118.398 85.9471 118.56 86.5211 118.68C87.6722 118.923 89.2984 119.006 91.1374 118.481L90.8626 117.519C89.2016 117.994 87.7423 117.916 86.727 117.702C86.2178 117.595 85.8295 117.455 85.5902 117.342C85.466 117.283 85.4027 117.24 85.3839 117.225C85.3683 117.212 85.4057 117.237 85.4415 117.301C85.4607 117.336 85.4974 117.413 85.4972 117.521C85.4969 117.646 85.4467 117.766 85.359 117.854L84.6519 117.146Z" fill="#F8F6EF"/>
</svg>
