<svg width="38" height="58" viewBox="0 0 38 58" fill="none" xmlns="http://www.w3.org/2000/svg">
<mask id="path-1-inside-1_10_33" fill="white">
<path d="M38 0.5C38 12.5447 34.4632 24.3243 27.8284 34.377C21.1936 44.4296 11.753 52.3127 0.67807 57.048L0.241753 56.0275C11.1168 51.3777 20.387 43.6368 26.9021 33.7656C33.4171 23.8944 36.8902 12.3274 36.8902 0.5H38Z"/>
</mask>
<path d="M38 0.5C38 12.5447 34.4632 24.3243 27.8284 34.377C21.1936 44.4296 11.753 52.3127 0.67807 57.048L0.241753 56.0275C11.1168 51.3777 20.387 43.6368 26.9021 33.7656C33.4171 23.8944 36.8902 12.3274 36.8902 0.5H38Z" stroke="#F8F6EF" stroke-width="2" mask="url(#path-1-inside-1_10_33)"/>
</svg>
