<svg width="40" height="48" viewBox="0 0 40 48" fill="none" xmlns="http://www.w3.org/2000/svg">
<path d="M22.6162 25.1038L22.5935 24.6043L22.6162 25.1038ZM7.46888 11.217L7.82565 11.5673L7.46888 11.217ZM39.0857 0.887917C27.3691 -1.14977 16.7177 5.17746 12.2156 11.8978C9.97322 15.2451 9.16378 18.8448 10.7643 21.5756C12.3658 24.308 16.2203 25.8949 22.6389 25.6033L22.5935 24.6043C16.276 24.8913 12.9354 23.3021 11.6271 21.0699C10.3178 18.8361 10.8838 15.6826 13.0464 12.4544C17.3543 6.02381 27.6309 -0.0892166 38.9143 1.87313L39.0857 0.887917ZM22.6389 25.6033C30.6584 25.2389 35.2307 22.8283 37.0736 19.5586C38.9285 16.2677 37.8951 12.3412 35.2443 9.26334C32.5851 6.1759 28.2338 3.84258 23.2002 3.65191C18.1521 3.4607 12.4553 5.4249 7.11211 10.8667L7.82565 11.5673C12.9929 6.3047 18.4246 4.47174 23.1624 4.6512C27.9147 4.83121 32.0065 7.03641 34.4866 9.91594C36.9749 12.8051 37.777 16.274 36.2025 19.0676C34.616 21.8824 30.4941 24.2454 22.5935 24.6043L22.6389 25.6033ZM7.11211 10.8667C2.84934 15.2082 0.869398 19.4059 0.547414 23.3608C0.225494 27.315 1.56689 30.9526 3.80514 34.163C8.2665 40.5622 16.3598 45.3683 22.4273 47.8435L22.805 46.9176C16.8165 44.4745 8.9279 39.7624 4.62546 33.5911C2.48181 30.5163 1.24585 27.1056 1.54412 23.442C1.84232 19.7791 3.68012 15.7894 7.82565 11.5673L7.11211 10.8667Z" fill="#F8F6EF"/>
</svg>
