<svg width="148" height="148" viewBox="0 0 148 148" fill="none" xmlns="http://www.w3.org/2000/svg">
<path d="M73.9199 65.3714C77.4627 65.3714 80.217 66.3543 82.1827 68.32C84.1713 70.2629 85.1656 73.0514 85.1656 76.6857C85.1656 80.32 84.1713 83.12 82.1827 85.0857C80.217 87.0286 77.4627 88 73.9199 88H65.9313V65.3714H73.9199ZM73.9199 84.88C76.3199 84.88 78.1484 84.1714 79.4056 82.7543C80.6856 81.3143 81.3256 79.2914 81.3256 76.6857C81.3256 74.08 80.6856 72.0686 79.4056 70.6514C78.1484 69.2114 76.3199 68.4914 73.9199 68.4914H69.5999V84.88H73.9199Z" fill="#7151B6"/>
<path d="M42.4436 114.568L73.2928 145.418L104.142 114.568" stroke="#7151B6" stroke-width="3"/>
<path d="M33.4309 105.556L2.58167 74.7071L33.4309 43.8579" stroke="#7151B6" stroke-width="3"/>
<path d="M114.568 42.4437L145.418 73.2929L114.568 104.142" stroke="#7151B6" stroke-width="3"/>
<path d="M105.556 33.4315L74.7067 2.58225L43.8574 33.4315" stroke="#7151B6" stroke-width="3"/>
</svg>
